<svg xmlns="http://www.w3.org/2000/svg" width="1040" height="360" viewBox="0 0 1040 360" role="img" aria-label="Xboard Node Rust architecture"><defs><marker id="a" markerWidth="8" markerHeight="8" refX="7" refY="4" orient="auto"><path d="M0 0L8 4L0 8" fill="#8b9cb8"/></marker></defs><rect width="1040" height="360" rx="20" fill="#101a2b"/><g font-family="Arial, sans-serif" text-anchor="middle"><text x="520" y="40" fill="#f2f6fd" font-size="23" font-weight="700">Xboard Node Rust</text><g fill="#172b45" stroke="#476888" stroke-width="1.5"><rect x="35" y="88" width="205" height="90" rx="12"/><rect x="345" y="75" width="350" height="195" rx="14"/><rect x="800" y="88" width="205" height="90" rx="12"/><rect x="35" y="235" width="205" height="80" rx="12"/><rect x="800" y="235" width="205" height="80" rx="12"/></g><g fill="#e6f2ff" font-size="19"><text x="137" y="124">Xboard Panel</text><text x="520" y="110">Rust Runtime / Fleet</text><text x="902" y="124">Client</text><text x="137" y="269">Local State / Outbox</text><text x="902" y="269">Destination / Proxy</text></g><g fill="#a9bed8" font-size="14"><text x="137" y="151">Config · Users · Reports</text><text x="902" y="151">VLESS · SS · VMess · QUIC</text><text x="520" y="149">Protocols · Shared sessions · Policy</text><text x="520" y="179">Routing · DNS · Certificates</text><text x="520" y="209">Counters · Revocation · Recovery</text><text x="520" y="244">1 Rust process / independent node state</text><text x="137" y="295">Checkpoint · Pending ACK</text><text x="902" y="295">TCP / UDP payload</text></g></g><g stroke="#8b9cb8" stroke-width="2" fill="none" marker-end="url(#a)"><path d="M240 121H333"/><path d="M345 150H252"/><path d="M800 132H707"/><path d="M345 245H252"/><path d="M240 277L333 260"/><path d="M695 248H788"/></g></svg>